<?xml version="1.0" encoding="utf-8"?>
<!-- Generator: Adobe Illustrator 19.0.0, SVG Export Plug-In . SVG Version: 6.00 Build 0)  -->
<svg version="1.1" id="Layer_1" xmlns="http://www.w3.org/2000/svg" xmlns:xlink="http://www.w3.org/1999/xlink" x="0px" y="0px"
	 viewBox="0 0 1000 1000" style="enable-background:new 0 0 1000 1000;" xml:space="preserve">
<style type="text/css">
	.st0{fill:#23F3B8;}
</style>
<path id="XMLID_27_" class="st0" d="M383.8,524.1c0-55.8,1.1-111.6-0.3-167.4C382,296,426.7,250.9,486.8,253.8
	c37.5,1.8,75.2,2,112.6-0.2c29.8-1.8,53.1,7.9,73.8,27.9c40.8,39.5,82.2,78.4,119.2,121.6c11.1,13,16.7,28,16.6,45.7
	c-0.4,84.2-0.1,168.5-0.2,252.7c-0.1,54.5-40.9,95-95.6,95c-77.8,0-155.6,0.1-233.4,0c-53.5-0.1-95.6-41.6-95.9-95.3
	C383.5,642.1,383.9,583.1,383.8,524.1z M431,524.9c0,5.9,0,11.8,0,17.7c0,50.4-0.3,100.9,0.1,151.3c0.3,36.5,17.5,55.5,50.2,55.6
	c76.7,0.3,153.5,0.3,230.2,0c31.8-0.1,51.8-20.7,51.8-52.8c0.1-82.1,0.1-164.2,0-246.3c0-21.5-9.3-31.3-30.9-32
	c-20.4-0.7-40.7-0.8-61.1-1.1c-18.7-0.3-26.1-7.5-26.5-26.1c-0.4-22.5,0-45.1-1.3-67.5c-1-17.6-9.4-24.4-27.1-24.5
	c-40.8-0.1-81.6,0-122.3,0c-45.9,0-62.8,16.7-63,63.1C430.9,416.5,431,470.7,431,524.9z"/>
<path id="XMLID_11_" class="st0" d="M499.3,227.5c-36.6,6.9-72.2,1.2-107.7,1.7c-32.7,0.4-65.5-0.2-98.2,0.2
	c-32.2,0.3-51.6,20.3-51.6,52.6c-0.1,107.3,0.7,214.7-0.6,322c-0.3,24.7,23.7,53.6,52,51.4c18.1-1.4,36.5,0.1,54.7-0.4
	c9.2-0.2,11.8,3.3,12.1,12.2c1.3,35,1.6,35.4-33.9,34.8c-26.5-0.4-53.1,3.5-78.6-10.2c-31.7-17.1-50.6-42.5-51-77.6
	c-1.2-114.3-1.1-228.7-0.1-343c0.4-50.9,40.4-86.3,90.2-88.4c47.7-2.1,95.5-0.5,143.3-0.4C450.1,182.4,481.1,202.7,499.3,227.5z"/>
<path id="XMLID_2_" class="st0" d="M448.1,583.2c0.5-82.7,67.5-148.7,149.8-147.6c84.5,1.1,147.7,65.7,147.1,150.2
	c-0.6,81.8-67.4,148.1-148.7,147.6C514.4,732.8,447.6,665.2,448.1,583.2z M506.5,620.6c33.8,0,34.2,0,33.6-31.6
	c-0.2-13.1,6.6-30.5-1.8-38.1c-9.1-8.2-26.5-2.4-40.3-2.6c-28.4-0.3-28.8,0.3-30.3,29.1c-0.1,1.1,0,2.1,0,3.2
	C466.9,619.6,467.8,620.6,506.5,620.6z M652.8,584.1c0,36.5,0,36.5,30.5,36.5c40.9,0,46.4-6.2,41.8-47.9c-0.5-4.2-1.8-8.4-2.1-12.6
	c-0.7-9.6-5.9-12.4-15-12c-12.8,0.6-25.7,1-38.5-0.1c-14.6-1.2-20.9,2.9-17,18.5C653.9,572,652.8,578.2,652.8,584.1z M632.1,584.8
	c0-36.5,0-36.5-35.7-36.5c-35.5,0-35.5,0-35.4,36.6c0,35.7,0,35.7,34.8,35.7C632.1,620.6,632.1,620.6,632.1,584.8z M595.8,640.8
	c-8.1,0-16.1-0.1-24.2,0c-3.9,0-7.5,0-6.6,6c3.3,21.5,10,41.7,22.4,59.6c4.8,7,10.5,7.5,17.4,1.3c9.4-8.5,12.4-19.9,16-30.9
	C632.8,640.9,632.6,640.8,595.8,640.8z M596.6,528c34.6,0,34.7,0,25.2-33.4c-2.5-8.7-5.3-17.5-9.8-25.3
	c-10.5-18.1-19.7-17.7-29.8,0.7c-4.1,7.4-8,15.1-10.5,23.2C560.9,528,561.1,528,596.6,528z M564.3,460.1
	c-40.4,10.2-65.4,33.3-83.8,67.9c19.6,0,36.7-0.2,53.8,0.1c7.2,0.1,9.3-2.7,11.3-9.8C550.8,499.9,553.4,480.6,564.3,460.1z
	 M564.9,709.5c-10.9-21.8-14.1-41.4-19.5-60.3c-1.6-5.6-3.4-8.4-9.3-8.3c-17.9,0.1-35.8,0-55.7,0C499.7,675,525.2,697.2,564.9,709.5
	z M711.4,528c-12.7-34.1-53.7-66.4-80.2-62.9c10.3,17.7,14.5,36.8,17,56.3c0.9,7,5.8,6.6,10.6,6.6C675.9,528,693,528,711.4,528z
	 M712.5,640.9c-20.3,0-38.3,0-56.3,0c-3.3,0-7.1,0.5-7.6,4.3c-2.5,21.5-9.3,41.8-20.5,65.3C667.4,696.1,694.6,676,712.5,640.9z"/>
</svg>
